<svg width="250" height="270" viewBox="0 0 250 270" fill="none" xmlns="http://www.w3.org/2000/svg">
<path d="M120.954 126.903C123.452 125.438 126.548 125.438 129.046 126.903L247.035 196.078C248.358 196.854 248.352 198.768 247.023 199.535L129.001 267.69C126.525 269.119 123.475 269.119 120.999 267.69L2.97654 199.535C1.64847 198.768 1.64218 196.854 2.96516 196.078L120.954 126.903Z" fill="url(#paint0_diamond_6435_20958)" fill-opacity="0.05"/>
<path d="M122.481 76.8758C124.116 76.3336 125.882 76.3336 127.517 76.8758L247.768 116.753L247.768 150.308C247.768 151.026 247.383 151.689 246.759 152.045L128.963 219.249C126.506 220.65 123.492 220.65 121.035 219.249L3.24135 152.047C2.61752 151.691 2.23242 151.028 2.23242 150.31L2.23242 116.753L122.481 76.8758Z" fill="url(#paint1_linear_6435_20958)"/>
<path d="M120.954 46.4539C123.452 44.989 126.548 44.989 129.046 46.4539L247.035 115.629C248.358 116.405 248.352 118.319 247.023 119.086L129.001 187.241C126.525 188.67 123.475 188.67 120.999 187.241L2.97654 119.086C1.64847 118.319 1.64218 116.405 2.96516 115.629L120.954 46.4539Z" fill="url(#paint2_linear_6435_20958)"/>
<path d="M120.948 50.8703C123.449 49.4007 126.551 49.4007 129.052 50.8703L239.23 115.596C240.551 116.372 240.545 118.285 239.218 119.052L129.007 182.824C126.528 184.259 123.472 184.259 120.993 182.824L10.7815 119.052C9.45549 118.285 9.4492 116.372 10.7702 115.596L120.948 50.8703Z" fill="url(#paint3_linear_6435_20958)"/>
<path d="M120.924 77.3528C123.437 75.8642 126.563 75.8642 129.076 77.3528L218.75 130.458L129.031 182.792C126.54 184.245 123.46 184.245 120.969 182.792L31.25 130.458L120.924 77.3528Z" fill="url(#paint4_linear_6435_20958)"/>
<path d="M120.923 3.51722C123.437 2.02795 126.563 2.02814 129.077 3.51769L247.768 73.8381L247.768 79.2306C247.768 79.9416 247.391 80.5991 246.777 80.9576L129.004 149.743C126.528 151.19 123.467 151.2 120.981 149.77L3.23538 82.058C2.61491 81.7011 2.23242 81.04 2.23242 80.3242L2.23242 73.8192L120.923 3.51722Z" fill="url(#paint5_linear_6435_20958)"/>
<path d="M120.954 2.37221C123.452 0.907338 126.548 0.907336 129.046 2.37221L247.035 71.5473C248.358 72.3229 248.352 74.2377 247.023 75.0046L129.001 143.159C126.525 144.589 123.475 144.589 120.999 143.159L2.97654 75.0046C1.64847 74.2377 1.64218 72.3229 2.96516 71.5473L120.954 2.37221Z" fill="url(#paint6_linear_6435_20958)"/>
<line x1="1" y1="-1" x2="21.4196" y2="-1" transform="matrix(-0.00223133 -1.00591 0.862742 0.483516 113.498 209.532)" stroke="#9098B0" stroke-opacity="0.9" stroke-width="2" stroke-linecap="round"/>
<line x1="1" y1="-1" x2="21.4196" y2="-1" transform="matrix(-0.00223133 -1.00591 0.862742 0.483516 105.029 204.906)" stroke="#9098B0" stroke-opacity="0.9" stroke-width="2" stroke-linecap="round"/>
<line x1="1" y1="-1" x2="21.4196" y2="-1" transform="matrix(-0.00223133 -1.00591 0.862742 0.483516 96.5586 200.279)" stroke="#9098B0" stroke-opacity="0.9" stroke-width="2" stroke-linecap="round"/>
<line x1="1" y1="-1" x2="21.4196" y2="-1" transform="matrix(-0.00223133 -1.00591 0.862742 0.483516 88.0898 195.652)" stroke="#9098B0" stroke-opacity="0.9" stroke-width="2" stroke-linecap="round"/>
<rect width="5.00898" height="4.54192" rx="1" transform="matrix(-0.862742 -0.483516 -0.00223129 -1.00591 114.689 201.34)" fill="#737B96"/>
<rect width="5.00898" height="4.54192" rx="1" transform="matrix(-0.862742 -0.483516 -0.00223129 -1.00591 106.223 196.714)" fill="#737B96"/>
<rect width="5.00898" height="4.54192" rx="1" transform="matrix(-0.862742 -0.483516 -0.00223129 -1.00591 97.752 192.087)" fill="#737B96"/>
<rect width="5.00898" height="4.54192" rx="1" transform="matrix(-0.862742 -0.483516 -0.00223129 -1.00591 89.2832 187.46)" fill="#737B96"/>
<line x1="0.5" y1="-0.5" x2="3.1411" y2="-0.5" transform="matrix(-0.862742 -0.483516 -0.00223121 -1.00591 114.094 198.255)" stroke="white" stroke-linecap="round"/>
<line x1="0.5" y1="-0.5" x2="3.1411" y2="-0.5" transform="matrix(-0.862742 -0.483516 -0.00223121 -1.00591 105.627 193.629)" stroke="white" stroke-linecap="round"/>
<line x1="0.5" y1="-0.5" x2="3.1411" y2="-0.5" transform="matrix(-0.862742 -0.483516 -0.00223121 -1.00591 97.1562 189.002)" stroke="white" stroke-linecap="round"/>
<line x1="0.5" y1="-0.5" x2="3.1411" y2="-0.5" transform="matrix(-0.862742 -0.483516 -0.00223121 -1.00591 88.6875 184.375)" stroke="white" stroke-linecap="round"/>
<path d="M69.4011 184.812L61.3285 179.88L62.0626 158.711L70.1352 163.642L74.538 176.764L69.4011 184.812Z" fill="#F0F2FA"/>
<rect width="61.5494" height="23.2473" transform="matrix(-0.841193 -0.513846 0.0351506 -1.01359 66.2832 184.129)" fill="#37A7F7"/>
<path d="M28.7637 161.209L24.2939 158.479L20.7053 144.255L25.111 134.915L29.5808 137.646L25.1751 146.986L28.7637 161.209Z" fill="#F0F2FA"/>
<path d="M35.5078 165.329L31.038 162.598L27.4495 148.375L31.8552 139.035L36.325 141.766L31.9193 151.106L35.5078 165.329Z" fill="#F0F2FA"/>
<path d="M42.3574 169.525L37.8876 166.794L34.2991 152.571L38.7048 143.231L43.1746 145.962L38.7689 155.302L42.3574 169.525Z" fill="#F0F2FA"/>
<ellipse cx="2.25544" cy="2.23486" rx="2.25544" ry="2.23486" transform="matrix(-0.841193 -0.513846 0.0351506 -1.01359 71.9648 177.525)" fill="#37A7F7"/>
<path d="M62.3686 170.304L59.0196 170.379L58.2878 174.677L55.6759 169.595L51.9645 167.862L53.6993 164.646L52.1373 159.278L55.8213 162.372L58.5674 160.787L59.1094 165.916L62.3686 170.304Z" fill="#F0F2FA"/>
<ellipse cx="12.3677" cy="12.2521" rx="12.3677" ry="12.2521" transform="matrix(0.853523 -0.498967 -0.0104682 1.00619 216.428 139.436)" fill="#9098B0"/>
<line x1="1" y1="-1" x2="39.8035" y2="-1" transform="matrix(0.853273 -0.483975 0.379457 0.668471 176.441 183.462)" stroke="#9098B0" stroke-width="2" stroke-linecap="round"/>
<line x1="1" y1="-1" x2="39.7902" y2="-1" transform="matrix(0.853459 -0.493912 0.383925 0.663178 176.369 175.411)" stroke="#9098B0" stroke-width="2" stroke-linecap="round"/>
<line x1="1" y1="-1" x2="39.7869" y2="-1" transform="matrix(0.853507 -0.49757 0.385553 0.66124 176.293 167.11)" stroke="#9098B0" stroke-width="2" stroke-linecap="round"/>
<path d="M226.532 135.16C225.403 135.82 224.283 136.733 223.235 137.847C222.186 138.962 221.231 140.255 220.423 141.654C219.615 143.053 218.97 144.53 218.525 146.001C218.081 147.471 217.845 148.907 217.831 150.225L220.683 148.558C220.692 147.677 220.85 146.718 221.147 145.735C221.444 144.752 221.875 143.765 222.415 142.83C222.955 141.895 223.593 141.031 224.294 140.286C224.994 139.542 225.743 138.931 226.498 138.49L226.532 135.16Z" fill="#DBDFEA"/>
<path d="M236.21 139.481C236.224 138.163 236.015 136.987 235.596 136.022C235.176 135.056 234.555 134.32 233.766 133.854C232.977 133.388 232.037 133.203 231 133.308C229.962 133.413 228.847 133.807 227.718 134.467L227.683 137.798C228.437 137.357 229.183 137.093 229.876 137.023C230.57 136.953 231.198 137.077 231.725 137.388C232.252 137.699 232.667 138.191 232.948 138.836C233.228 139.482 233.367 140.267 233.358 141.148L236.21 139.481Z" fill="#DBDFEA"/>
<path d="M232.122 141.871C232.129 141.166 232.018 140.538 231.794 140.023C231.57 139.507 231.238 139.114 230.816 138.865C230.395 138.616 229.893 138.517 229.339 138.573C228.785 138.63 228.189 138.84 227.586 139.192L227.56 141.711C227.88 141.524 228.195 141.412 228.489 141.383C228.783 141.353 229.05 141.405 229.273 141.537C229.496 141.669 229.673 141.878 229.791 142.151C229.91 142.425 229.969 142.758 229.965 143.131L232.122 141.871Z" fill="#DBDFEA"/>
<path d="M226.482 139.837C225.879 140.19 225.281 140.677 224.721 141.273C224.161 141.868 223.651 142.559 223.219 143.306C222.788 144.053 222.443 144.842 222.206 145.628C221.968 146.413 221.842 147.18 221.835 147.884L223.991 146.623C223.995 146.25 224.062 145.843 224.188 145.427C224.314 145.01 224.497 144.592 224.726 144.195C224.954 143.799 225.225 143.433 225.522 143.117C225.819 142.801 226.136 142.543 226.456 142.356L226.482 139.837Z" fill="#DBDFEA"/>
<path d="M221.821 149.226C221.814 149.93 221.926 150.558 222.15 151.074C222.374 151.59 222.706 151.983 223.127 152.232C223.548 152.48 224.05 152.579 224.604 152.523C225.159 152.467 225.754 152.257 226.357 151.904L226.384 149.386C226.064 149.573 225.748 149.684 225.454 149.714C225.16 149.744 224.894 149.691 224.67 149.559C224.447 149.427 224.271 149.219 224.152 148.945C224.033 148.672 223.974 148.339 223.978 147.965L221.821 149.226Z" fill="#DBDFEA"/>
<path d="M227.543 151.211C228.146 150.859 228.745 150.371 229.304 149.776C229.864 149.181 230.375 148.49 230.806 147.743C231.238 146.995 231.582 146.206 231.82 145.421C232.057 144.635 232.183 143.869 232.191 143.164L230.034 144.425C230.03 144.799 229.963 145.205 229.837 145.622C229.711 146.038 229.529 146.457 229.3 146.853C229.071 147.249 228.8 147.616 228.503 147.931C228.206 148.247 227.889 148.506 227.569 148.693L227.543 151.211Z" fill="#DBDFEA"/>
<path d="M227.493 155.888C228.622 155.228 229.743 154.315 230.791 153.201C231.839 152.087 232.795 150.793 233.602 149.394C234.41 147.995 235.055 146.518 235.5 145.048C235.945 143.577 236.181 142.142 236.194 140.823L233.342 142.49C233.333 143.371 233.176 144.331 232.878 145.313C232.581 146.296 232.15 147.283 231.61 148.218C231.07 149.153 230.432 150.017 229.731 150.762C229.031 151.507 228.282 152.117 227.528 152.558L227.493 155.888Z" fill="#DBDFEA"/>
<path d="M217.815 151.567C217.802 152.886 218.01 154.061 218.43 155.027C218.849 155.992 219.471 156.729 220.259 157.195C221.048 157.66 221.988 157.846 223.026 157.74C224.064 157.635 225.179 157.241 226.308 156.581L226.342 153.251C225.588 153.692 224.843 153.955 224.149 154.025C223.456 154.096 222.828 153.972 222.301 153.661C221.774 153.349 221.358 152.857 221.078 152.212C220.798 151.567 220.658 150.781 220.667 149.9L217.815 151.567Z" fill="#DBDFEA"/>
<path d="M188.185 59.1457L167.915 60.0075C168.48 59.1265 168.713 58.2278 168.713 58.2278L188.386 57.1581C188.386 57.1581 188.361 58.4482 188.185 59.1457Z" fill="url(#paint7_linear_6435_20958)" fill-opacity="0.35"/>
<path d="M119.803 12.724C122.313 11.2266 125.439 11.2168 127.958 12.6986L225.069 69.8239C226.384 70.5973 226.383 72.4987 225.068 73.2718L126.152 131.431C123.665 132.893 120.583 132.903 118.087 131.457L20.943 75.1713C19.6231 74.4065 19.6109 72.5049 20.9209 71.7232L119.803 12.724Z" fill="#333D5E"/>
<path d="M119.992 13.675C122.375 12.3686 125.257 12.3606 127.647 13.6538L218.982 63.0843L218.982 70.4498C218.982 71.1602 218.605 71.8172 217.992 72.176L126.191 125.896C123.712 127.347 120.646 127.357 118.157 125.923L28.0191 73.9893C27.3995 73.6323 27.0176 72.9715 27.0176 72.2563L27.0176 64.6588L119.992 13.675Z" fill="url(#paint8_linear_6435_20958)"/>
<path d="M119.716 8.49437C122.241 6.97323 125.397 6.96335 127.931 8.46867L218.319 62.1647C219.623 62.9399 219.623 64.829 218.318 65.6039L126.237 120.279C123.735 121.765 120.624 121.775 118.113 120.305L27.6921 67.3973C26.382 66.6307 26.3699 64.7414 27.67 63.958L119.716 8.49437Z" fill="#4AA7F0"/>
<path d="M151.484 78.4099C164.009 80.2696 176.812 63.4719 163.088 57.0143C168.398 44.2992 149.102 34.6336 142.141 41.55C142.141 41.55 129.735 30.0752 119.966 40.1242C107.631 27.0219 90.2149 35.7736 95.0518 46.9174" stroke="white" stroke-width="2" stroke-linecap="round"/>
<path d="M104.053 55.2852L120.019 50.6151L122.825 52.2239L102.75 57.6279L100.855 56.5418L104.053 55.2852ZM112.553 46.3345L104.317 55.4362L102.142 57.2794L100.237 56.1875L109.757 44.7315L112.553 46.3345ZM122.466 62.6238L118.626 60.4225L120.647 59.2696L124.487 61.4708C125.156 61.8541 125.804 62.1021 126.433 62.2147C127.061 62.3273 127.66 62.3296 128.228 62.2218C128.81 62.1139 129.348 61.919 129.842 61.637C130.309 61.3705 130.648 61.0652 130.858 60.7212C131.082 60.3771 131.114 60.0156 130.952 59.6365C130.791 59.2573 130.376 58.8761 129.707 58.4928L126.648 56.7388L113.892 64.0158L111.349 62.558L126.136 54.1222L131.738 57.334C132.88 57.9884 133.646 58.6599 134.036 59.3486C134.441 60.0372 134.497 60.7044 134.204 61.35C133.919 61.9918 133.323 62.5715 132.415 63.089C131.461 63.6337 130.432 63.981 129.33 64.131C128.227 64.2811 127.091 64.23 125.922 63.9778C124.759 63.7295 123.607 63.2782 122.466 62.6238ZM137.828 73.3828C138.133 73.2089 138.356 73.0273 138.499 72.8379C138.648 72.6524 138.706 72.4378 138.673 72.1942C138.639 71.9505 138.505 71.6565 138.269 71.3121C138.046 70.9678 137.712 70.5557 137.267 70.0758C136.782 69.5495 136.374 69.0407 136.043 68.5493C135.726 68.058 135.525 67.586 135.438 67.1335C135.358 66.6771 135.426 66.2479 135.643 65.8458C135.867 65.4399 136.284 65.0631 136.893 64.7155C137.496 64.3717 138.169 64.1305 138.914 63.9918C139.664 63.857 140.452 63.8208 141.277 63.8833C142.116 63.9457 142.954 64.1049 143.792 64.3607C144.636 64.6127 145.447 64.9613 146.224 65.4066C147.318 66.0338 148.057 66.6899 148.441 67.3746C148.832 68.0633 148.898 68.7246 148.639 69.3587C148.388 69.9966 147.849 70.5512 147.023 71.0224L144.5 69.5762C144.988 69.2981 145.313 68.9928 145.476 68.6604C145.653 68.3279 145.64 67.9798 145.438 67.6162C145.243 67.2564 144.827 66.8945 144.193 66.5305C143.592 66.1859 143 65.9515 142.419 65.8274C141.838 65.7032 141.294 65.6738 140.786 65.7392C140.279 65.8046 139.829 65.9493 139.436 66.1733C139.159 66.3317 138.969 66.5133 138.867 66.7182C138.772 66.9193 138.758 67.1513 138.825 67.4143C138.899 67.6735 139.05 67.9655 139.279 68.2906C139.509 68.6156 139.816 68.9774 140.2 69.376C140.774 69.9835 141.215 70.5465 141.525 71.065C141.842 71.5796 142.017 72.0592 142.05 72.504C142.082 72.9487 141.963 73.3644 141.692 73.7509C141.427 74.1336 140.997 74.4949 140.401 74.8348C139.778 75.1902 139.091 75.4391 138.341 75.5817C137.596 75.7204 136.815 75.7566 135.997 75.6902C135.193 75.6239 134.371 75.459 133.534 75.1954C132.709 74.9319 131.902 74.5736 131.112 74.1206C130.402 73.714 129.798 73.2592 129.299 72.7561C128.806 72.2568 128.473 71.7365 128.298 71.1949C128.13 70.6495 128.172 70.1159 128.423 69.594C128.682 69.0682 129.203 68.5813 129.989 68.1332L132.531 69.591C132.051 69.8653 131.722 70.1454 131.546 70.4315C131.376 70.7214 131.331 71.0134 131.412 71.3073C131.499 71.5974 131.688 71.8837 131.978 72.1663C132.275 72.4526 132.65 72.7256 133.102 72.985C133.697 73.3257 134.278 73.562 134.845 73.6939C135.42 73.8297 135.961 73.8687 136.468 73.8111C136.975 73.7534 137.429 73.6107 137.828 73.3828Z" fill="white"/>
<path d="M64.3801 58.9494C64.0095 59.1597 63.627 59.3221 63.2324 59.4366C62.8475 59.5511 62.4651 59.6287 62.085 59.6694C61.705 59.71 61.3322 59.7165 60.9667 59.6887C60.6012 59.6609 60.2573 59.6127 59.9351 59.5439C59.6129 59.4752 59.3124 59.3887 59.0335 59.2844C58.7595 59.1829 58.5215 59.0745 58.3196 58.9594L51.0874 54.8347L52.9644 53.7695L60.1966 57.8942C60.5571 58.0998 60.9418 58.1987 61.3507 58.1909C61.7643 58.1859 62.1492 58.0823 62.5054 57.8802C62.6787 57.7819 62.811 57.6767 62.9025 57.5646C62.9941 57.4525 63.0423 57.3376 63.0472 57.2199C63.057 57.105 63.0186 56.99 62.9321 56.875C62.8505 56.7627 62.7231 56.6572 62.5501 56.5585L58.2382 54.0994C57.9353 53.9267 57.6614 53.7102 57.4164 53.45C57.1762 53.187 57.0249 52.9009 56.9627 52.5916C56.9054 52.2851 56.9706 51.9636 57.1586 51.6272C57.3513 51.2936 57.7293 50.967 58.2924 50.6474C58.8555 50.3279 59.4281 50.115 60.0102 50.0089C60.6019 49.9028 61.1671 49.8665 61.7058 49.8999C62.2541 49.9333 62.7567 50.0201 63.2134 50.1601C63.6751 50.2974 64.0573 50.4524 64.3601 50.6252L70.7415 54.2645L68.8644 55.3298L62.4831 51.6904C62.1274 51.4875 61.7403 51.3899 61.3218 51.3977C60.9082 51.4082 60.5233 51.5145 60.1671 51.7166C59.8061 51.9215 59.6183 52.1402 59.6036 52.3728C59.5986 52.6054 59.7739 52.8231 60.1296 53.026L64.4415 55.4851L64.456 55.4934C64.653 55.6112 64.8381 55.7496 65.0111 55.9085C65.1889 56.0647 65.3354 56.2359 65.4506 56.4221C65.5707 56.611 65.6498 56.8095 65.6881 57.0175C65.7312 57.2228 65.7165 57.4335 65.6441 57.6496C65.5766 57.8684 65.4416 58.0872 65.2394 58.3059C65.0371 58.5246 64.7507 58.7391 64.3801 58.9494ZM81.7774 62.6943L77.6457 60.3379L69.1703 65.1477L67.2956 64.0785L75.771 59.2687L71.6321 56.9082L73.5091 55.843L83.6544 61.629L81.7774 62.6943ZM90.7626 72.698C90.1321 73.0558 89.444 73.3232 88.6982 73.5003C87.9525 73.6773 87.1949 73.7655 86.4253 73.7647C85.6557 73.7638 84.8982 73.6741 84.1529 73.4954C83.4171 73.3168 82.7392 73.0506 82.1191 72.697L79.581 71.2494C78.9609 70.8958 78.4923 70.5081 78.1753 70.0863C77.8631 69.6619 77.7073 69.2307 77.7077 68.7929C77.7082 68.355 77.8626 67.9229 78.1709 67.4963C78.484 67.0725 78.9557 66.6817 79.5862 66.3239L81.5643 65.2013C82.19 64.8462 82.8757 64.5802 83.6214 64.4031C84.3768 64.226 85.1368 64.1393 85.9016 64.1428C86.6712 64.1436 87.4287 64.2334 88.174 64.412C88.9194 64.5907 89.6021 64.8569 90.2222 65.2105L92.7603 66.658C93.3804 67.0117 93.8442 67.3994 94.1515 67.8211C94.4637 68.2456 94.6196 68.6768 94.6191 69.1146C94.6235 69.5497 94.4667 69.9805 94.1488 70.4071C93.8357 70.8309 93.3663 71.2203 92.7406 71.5754L90.7626 72.698ZM90.8659 70.5062C91.2365 70.2959 91.5109 70.0718 91.6891 69.8339C91.877 69.596 91.9686 69.3553 91.9641 69.1118C91.9691 68.8682 91.878 68.6273 91.6907 68.3891C91.5129 68.1508 91.2438 67.9289 90.8833 67.7233L88.3452 66.2757C87.9799 66.0674 87.5856 65.911 87.1624 65.8065C86.7489 65.7021 86.3257 65.6497 85.8928 65.6492C85.4647 65.646 85.039 65.6962 84.6156 65.7997C84.2018 65.9033 83.8096 66.0602 83.439 66.2705L81.461 67.3931C81.0904 67.6034 80.8112 67.8275 80.6233 68.0653C80.4451 68.3032 80.3559 68.5453 80.3556 68.7916C80.3602 69.0351 80.4513 69.276 80.629 69.5143C80.8163 69.7526 81.0927 69.9759 81.458 70.1842L83.9817 71.6235C84.347 71.8319 84.7365 71.9883 85.15 72.0927C85.5732 72.1971 85.9988 72.251 86.4269 72.2541C86.8598 72.2546 87.2831 72.2031 87.6969 72.0995C88.1202 71.996 88.5172 71.8391 88.8878 71.6288L90.8659 70.5062ZM106.815 78.7975C106.387 79.0405 105.951 79.2275 105.509 79.3584C105.066 79.4893 104.624 79.5764 104.181 79.6197C103.748 79.663 103.322 79.6694 102.904 79.6389C102.486 79.6083 102.086 79.5532 101.706 79.4734C101.336 79.3936 100.992 79.2934 100.675 79.1727C100.363 79.0547 100.091 78.9299 99.8601 78.7983L100.39 82.9527L97.491 81.2996L96.9687 77.1492L95.6203 76.3802L97.4974 75.315L101.737 77.7331C101.992 77.8565 102.254 77.9512 102.523 78.0171C102.802 78.0831 103.079 78.1176 103.353 78.1206C103.632 78.1264 103.904 78.0979 104.168 78.0353C104.438 77.9699 104.695 77.8675 104.941 77.7283L106.125 77.0564C106.23 76.9963 106.295 76.943 106.32 76.8965C106.353 76.85 106.36 76.8076 106.341 76.7693C106.332 76.7309 106.305 76.6967 106.262 76.6666C106.224 76.6392 106.185 76.6145 106.147 76.5925L99.96 73.0642L91.4846 77.874L89.6099 76.8048L99.0166 71.4665C99.1465 71.3927 99.2933 71.3368 99.4569 71.2987C99.6204 71.2605 99.7864 71.2402 99.9548 71.2376C100.128 71.2378 100.296 71.2571 100.46 71.2956C100.623 71.3341 100.772 71.3917 100.907 71.4685L108.024 75.5273C108.442 75.7659 108.718 76.0111 108.853 76.263C108.992 76.5121 109.035 76.753 108.982 76.9855C108.938 77.2181 108.823 77.4314 108.635 77.6255C108.452 77.8223 108.245 77.9863 108.014 78.1174L106.815 78.7975ZM113.151 90.2309L111.276 89.1617L113.818 87.7195L107.227 83.9609L104.686 85.403L102.811 84.3338L107.987 81.3963C108.743 80.9675 109.568 80.6468 110.463 80.4343C111.358 80.2218 112.265 80.1174 113.184 80.1212C114.102 80.1249 115.004 80.2339 115.889 80.4483C116.774 80.6627 117.589 80.9823 118.334 81.4073L122.559 83.8171C122.689 83.8911 122.787 83.9747 122.855 84.0678C122.922 84.1609 122.955 84.2567 122.955 84.3552C122.955 84.4537 122.921 84.5495 122.854 84.6424C122.786 84.7354 122.688 84.8188 122.558 84.8925L113.151 90.2309ZM109.104 82.8957L115.695 86.6543L119.752 84.3518L116.457 82.4725C116.399 82.4396 116.267 82.3752 116.06 82.2792C115.863 82.1832 115.608 82.0844 115.296 81.9828C114.988 81.884 114.63 81.7974 114.221 81.7231C113.812 81.6488 113.372 81.6168 112.901 81.6273C112.429 81.6377 111.934 81.7056 111.414 81.8309C110.904 81.9562 110.387 82.1678 109.862 82.4655L109.104 82.8957ZM127.666 97.4329C127.531 97.5093 127.382 97.5667 127.218 97.6048C127.055 97.6429 126.886 97.6619 126.713 97.6617C126.55 97.6615 126.386 97.6422 126.223 97.6037C126.059 97.5652 125.91 97.5076 125.776 97.4309L119.012 93.5735C118.839 93.4748 118.671 93.357 118.507 93.22C118.354 93.083 118.222 92.9337 118.111 92.7722C118.005 92.6133 117.931 92.445 117.888 92.267C117.85 92.0864 117.857 91.9017 117.91 91.7129C117.973 91.5242 118.091 91.3341 118.264 91.1428C118.443 90.9487 118.693 90.7601 119.015 90.5771L124.098 87.6929C124.271 87.5945 124.475 87.5003 124.711 87.4103C124.957 87.3203 125.219 87.2453 125.498 87.1854C125.782 87.1227 126.082 87.0806 126.4 87.0591C126.717 87.0375 127.04 87.0434 127.367 87.0765C127.703 87.1097 128.04 87.1758 128.377 87.2746C128.713 87.3735 129.043 87.5148 129.365 87.6985L136.986 92.0452L135.109 93.1104L127.488 88.7637C127.242 88.6239 126.99 88.5538 126.73 88.5535C126.47 88.5533 126.213 88.6255 125.958 88.7703L120.89 91.6463C120.649 91.7829 120.527 91.9264 120.522 92.0769C120.526 92.2274 120.649 92.3712 120.889 92.5083L126.722 95.8352L129.076 94.4996L124.086 91.6538L125.978 90.5804L131.898 93.9566C132.032 94.0334 132.131 94.1197 132.193 94.2155C132.26 94.3087 132.292 94.4031 132.287 94.4989C132.286 94.5974 132.253 94.6931 132.185 94.7861C132.123 94.8763 132.026 94.9583 131.896 95.0321L127.666 97.4329ZM142.587 102.205L136.668 98.8292L138.559 97.7558L144.479 101.132L142.587 102.205ZM139.2 105.087L132.437 101.23C132.177 101.082 131.94 100.894 131.723 100.667C131.507 100.44 131.37 100.192 131.313 99.9235C131.265 99.6553 131.318 99.3762 131.472 99.0863C131.636 98.7964 131.961 98.5136 132.447 98.2377L139.219 94.3948C139.349 94.321 139.496 94.2651 139.659 94.2269C139.823 94.1888 139.989 94.1684 140.157 94.1659C140.33 94.1661 140.499 94.1854 140.662 94.2239C140.826 94.2624 140.975 94.32 141.109 94.3968L149.553 99.2123L147.676 100.277L140.163 95.9925L134.322 99.3069C134.077 99.4462 133.954 99.5897 133.954 99.7375C133.954 99.8853 134.078 100.03 134.328 100.173L141.078 104.022L139.2 105.087Z" fill="white"/>
<defs>
<radialGradient id="paint0_diamond_6435_20958" cx="0" cy="0" r="1" gradientUnits="userSpaceOnUse" gradientTransform="translate(125 106.347) rotate(90) scale(163.653 301.451)">
<stop stop-color="#2D3B5A" stop-opacity="0"/>
<stop offset="0.449103" stop-color="#2E3C5B" stop-opacity="0.33"/>
<stop offset="0.710438" stop-color="#2F3C5B" stop-opacity="0.83"/>
<stop offset="1" stop-color="#10192F"/>
</radialGradient>
<linearGradient id="paint1_linear_6435_20958" x1="0.0612588" y1="148.775" x2="249.937" y2="148.775" gradientUnits="userSpaceOnUse">
<stop stop-color="#CAD1DF"/>
<stop offset="0.504088" stop-color="#E1E5EE"/>
<stop offset="1" stop-color="#D9DFEA"/>
</linearGradient>
<linearGradient id="paint2_linear_6435_20958" x1="-2.31102e-06" y1="116.816" x2="248.144" y2="116.816" gradientUnits="userSpaceOnUse">
<stop stop-color="white"/>
<stop offset="1" stop-color="white"/>
</linearGradient>
<linearGradient id="paint3_linear_6435_20958" x1="7.8125" y1="116.816" x2="240.448" y2="116.816" gradientUnits="userSpaceOnUse">
<stop stop-color="#C9D0DE"/>
<stop offset="1" stop-color="#E2E5EE"/>
</linearGradient>
<linearGradient id="paint4_linear_6435_20958" x1="31.25" y1="130.041" x2="217.358" y2="130.041" gradientUnits="userSpaceOnUse">
<stop stop-color="#213652"/>
<stop offset="1" stop-color="#323D5D"/>
</linearGradient>
<linearGradient id="paint5_linear_6435_20958" x1="2.23242" y1="76.5919" x2="247.768" y2="76.5919" gradientUnits="userSpaceOnUse">
<stop stop-color="#243A57"/>
<stop offset="1" stop-color="#23598C"/>
</linearGradient>
<linearGradient id="paint6_linear_6435_20958" x1="-2.35714e-06" y1="72.7347" x2="248.144" y2="72.7347" gradientUnits="userSpaceOnUse">
<stop stop-color="#6A95BE"/>
<stop offset="1" stop-color="#2267A3"/>
</linearGradient>
<linearGradient id="paint7_linear_6435_20958" x1="178.874" y1="59.5669" x2="178.707" y2="56.88" gradientUnits="userSpaceOnUse">
<stop stop-opacity="0"/>
<stop offset="1"/>
</linearGradient>
<linearGradient id="paint8_linear_6435_20958" x1="24.8599" y1="69.9109" x2="221.136" y2="69.9109" gradientUnits="userSpaceOnUse">
<stop stop-color="#3A6FA1"/>
<stop offset="1" stop-color="#3A70A3"/>
</linearGradient>
</defs>
</svg>
